<mxfile host="app.diagrams.net" modified="2023-09-02T00:09:30.033Z" agent="Mozilla/5.0 (Windows NT 10.0; Win64; x64) AppleWebKit/537.36 (KHTML, like Gecko) Chrome/116.0.0.0 Safari/537.36" version="21.7.2" etag="fUnx9-zCkJZ0am0Mp_cj" type="github">
  <diagram name="PÃ¡gina-1" id="oJfKlUC4fJond-4Fd566">
    <mxGraphModel>
      <root>
        <mxCell id="0" />
        <mxCell id="1" parent="0" />
      </root>
    </mxGraphModel>
  </diagram>
</mxfile>
